<svg xmlns="http://www.w3.org/2000/svg" width="42.952" height="42.992" viewBox="0 0 42.952 42.992">
  <g id="Group_192" data-name="Group 192" transform="translate(-157.486 -313.93)">
    <path id="Path_596" data-name="Path 596" d="M217.23,372.07l-4.77-3.17-4.24-2.83a1.88,1.88,0,0,0-2.52.41l-2.62,3.37a1.89,1.89,0,0,1-2.39.5c-1.78-1-3.88-1.93-8.52-6.58s-5.58-6.74-6.57-8.52a1.87,1.87,0,0,1,.49-2.39l3.37-2.62a1.86,1.86,0,0,0,.41-2.52l-2.74-4.11-3.26-4.9a1.88,1.88,0,0,0-2.53-.56l-3.77,2.25a4.66,4.66,0,0,0-2.09,2.71c-1,3.75-1.23,12,12,25.31s21.56,13.07,25.31,12a4.62,4.62,0,0,0,2.71-2.09l2.26-3.77A1.89,1.89,0,0,0,217.23,372.07Z" transform="translate(-17.58 -23.95)" fill="#c8c8c8"/>
    <path id="Path_597" data-name="Path 597" d="M199.53,344.55a12.62,12.62,0,0,1,12.6,12.61.74.74,0,0,0,.74.74.75.75,0,0,0,.75-.74,14.11,14.11,0,0,0-14.09-14.09.74.74,0,1,0,0,1.48Z" transform="translate(-17.58 -23.95)" fill="#c8c8c8"/>
    <path id="Path_598" data-name="Path 598" d="M199.53,349a8.15,8.15,0,0,1,8.15,8.16.75.75,0,0,0,1.49,0,9.65,9.65,0,0,0-9.64-9.64.74.74,0,1,0,0,1.48Z" transform="translate(-17.58 -23.95)" fill="#c8c8c8"/>
    <path id="Path_599" data-name="Path 599" d="M199.53,353.45a3.71,3.71,0,0,1,3.7,3.71.75.75,0,0,0,.75.74.74.74,0,0,0,.74-.74,5.2,5.2,0,0,0-5.19-5.19.74.74,0,0,0,0,1.48Z" transform="translate(-17.58 -23.95)" fill="#c8c8c8"/>
  </g>
</svg>
