<svg xmlns="http://www.w3.org/2000/svg" width="42.957" height="43.012" viewBox="0 0 42.957 43.012">
  <g id="Group_191" data-name="Group 191" transform="translate(-219.466 -309.51)">
    <path id="Path_342" data-name="Path 342" d="M279.21,367.65l-4.77-3.17-4.24-2.83a1.87,1.87,0,0,0-2.52.41l-2.62,3.37a1.89,1.89,0,0,1-2.39.5c-1.78-1-3.88-1.93-8.52-6.57s-5.59-6.75-6.58-8.53a1.89,1.89,0,0,1,.5-2.39l3.37-2.62a1.87,1.87,0,0,0,.41-2.52l-2.74-4.11-3.26-4.9a1.88,1.88,0,0,0-2.53-.56L239.55,336a4.62,4.62,0,0,0-2.09,2.71c-1,3.75-1.23,12,12,25.31s21.56,13.07,25.31,12a4.62,4.62,0,0,0,2.71-2.09l2.25-3.77a1.88,1.88,0,0,0-.52-2.51Z" transform="translate(-17.58 -23.95)" fill="#c5d32f"/>
    <path id="Path_343" data-name="Path 343" d="M261.5,340.13a12.63,12.63,0,0,1,12.61,12.61.74.74,0,0,0,1.48,0,14.1,14.1,0,0,0-14.08-14.09.74.74,0,0,0,0,1.48Z" transform="translate(-17.58 -23.95)" fill="#c5d32f"/>
    <path id="Path_344" data-name="Path 344" d="M261.5,344.58a8.16,8.16,0,0,1,8.16,8.16.74.74,0,1,0,1.48,0,9.63,9.63,0,0,0-9.64-9.64.74.74,0,0,0,0,1.48Z" transform="translate(-17.58 -23.95)" fill="#c5d32f"/>
    <path id="Path_345" data-name="Path 345" d="M261.5,349a3.71,3.71,0,0,1,3.71,3.71.74.74,0,0,0,.74.74.75.75,0,0,0,.75-.74,5.2,5.2,0,0,0-5.19-5.19.74.74,0,1,0,0,1.48Z" transform="translate(-17.58 -23.95)" fill="#c5d32f"/>
  </g>
</svg>
