<svg xmlns="http://www.w3.org/2000/svg" width="44.417" height="42.877" viewBox="0 0 44.417 42.877">
  <g id="Group_120" data-name="Group 120" transform="translate(-1075.21 -408)">
    <path id="Path_180" data-name="Path 180" d="M1104.668,408h-19.944a3.364,3.364,0,0,0-3.364,3.364v33.25a3.364,3.364,0,0,0,3.364,3.364h26.808a3.364,3.364,0,0,0,3.364-3.364V418.228Z" fill="#e0e0df"/>
    <path id="Path_181" data-name="Path 181" d="M1108.032,418.228a3.364,3.364,0,0,1-3.364-3.363V408l10.228,10.228Z" fill="#a5a5a5"/>
    <rect id="Rectangle_35" data-name="Rectangle 35" width="25.843" height="14.826" transform="translate(1075.21 418.316)" fill="#3b9bd8"/>
    <path id="Path_182" data-name="Path 182" d="M1075.21,433.142l6.132,4.9v-4.9Z" fill="#0074b1"/>
    <circle id="Ellipse_10" data-name="Ellipse 10" cx="9.017" cy="9.017" r="9.017" transform="translate(1101.593 432.843)" fill="#88ba2a"/>
    <g id="Group_117" data-name="Group 117">
      <path id="Path_183" data-name="Path 183" d="M1114.9,442.331l-4.294,5.4-4.294-5.4Z" fill="#fff"/>
      <rect id="Rectangle_36" data-name="Rectangle 36" width="3.267" height="5.491" transform="translate(1108.976 437.549)" fill="#fff"/>
    </g>
    <g id="Group_119" data-name="Group 119">
      <g id="Group_118" data-name="Group 118">
        <path id="Path_184" data-name="Path 184" d="M1078.119,422.209h2.592a3.272,3.272,0,0,1,3.489,3.6c0,2.423-1.313,3.915-3.568,3.915h-2.513Zm1.349,6.442h1.135c1.466,0,2.206-1.062,2.206-2.819,0-1.517-.746-2.537-2.195-2.537h-1.146Z" fill="#fff"/>
        <path id="Path_185" data-name="Path 185" d="M1091.91,425.928c0,2.153-1.051,3.9-3.374,3.9-2.246,0-3.277-1.739-3.277-3.91,0-1.918,1.048-3.816,3.377-3.816C1090.838,422.107,1091.91,423.837,1091.91,425.928Zm-5.26-.01c0,1.579.643,2.829,1.945,2.829,1.4,0,1.936-1.2,1.936-2.815,0-1.492-.545-2.74-1.953-2.74C1087.228,423.192,1086.65,424.4,1086.65,425.918Z" fill="#fff"/>
        <path id="Path_186" data-name="Path 186" d="M1099.1,427.422a2.749,2.749,0,0,1-2.939,2.41c-2.315,0-3.19-1.7-3.19-3.878,0-2.072,1.056-3.847,3.25-3.847a2.576,2.576,0,0,1,2.842,2.409h-1.323a1.459,1.459,0,0,0-1.564-1.321c-1.339,0-1.821,1.323-1.821,2.75,0,1.464.432,2.8,1.839,2.8a1.534,1.534,0,0,0,1.578-1.328Z" fill="#fff"/>
      </g>
    </g>
  </g>
</svg>
