<svg xmlns="http://www.w3.org/2000/svg" width="32.76" height="43" viewBox="0 0 32.76 43">
  <g id="Group_187" data-name="Group 187" transform="translate(-559 -158.72)">
    <path id="Path_603" data-name="Path 603" d="M580.36,225.67h25.2a3.79,3.79,0,0,0,3.78-3.78V195.27h-8.82a3.78,3.78,0,0,1-3.78-3.78v-8.82H580.36a3.79,3.79,0,0,0-3.78,3.78v35.44a3.79,3.79,0,0,0,3.78,3.78Zm5-25.28h15.12a1.26,1.26,0,1,1,0,2.52H585.4a1.26,1.26,0,1,1,0-2.52Zm0,5h15.12a1.26,1.26,0,1,1,0,2.52H585.4a1.26,1.26,0,1,1,0-2.52Zm0,5h15.12a1.26,1.26,0,1,1,0,2.52H585.4a1.26,1.26,0,0,1,0-2.52Zm0,5h10.08a1.26,1.26,0,1,1,0,2.52H585.4a1.26,1.26,0,0,1,0-2.52Z" transform="translate(-17.58 -23.95)" fill="#c8c8c8"/>
    <path id="Path_604" data-name="Path 604" d="M600.52,192.75h8.08l-9.34-9.34v8.08A1.26,1.26,0,0,0,600.52,192.75Z" transform="translate(-17.58 -23.95)" fill="#c8c8c8"/>
  </g>
</svg>
