<svg xmlns="http://www.w3.org/2000/svg" width="32.754" height="43" viewBox="0 0 32.754 43">
  <path id="Path_88" data-name="Path 88" d="M531.491,225.67h25.2a3.783,3.783,0,0,0,3.779-3.779V195.268h-8.819a3.784,3.784,0,0,1-3.779-3.78V182.67H531.491a3.783,3.783,0,0,0-3.779,3.779v35.442A3.783,3.783,0,0,0,531.491,225.67Zm5.039-25.279h15.117a1.259,1.259,0,1,1,0,2.519H536.53a1.259,1.259,0,0,1,0-2.519Zm0,5.039h15.117a1.26,1.26,0,1,1,0,2.519H536.53a1.26,1.26,0,0,1,0-2.519Zm0,5.039h15.117a1.26,1.26,0,1,1,0,2.519H536.53a1.26,1.26,0,0,1,0-2.519Zm0,5.039h10.078a1.259,1.259,0,1,1,0,2.519H536.53a1.259,1.259,0,0,1,0-2.519Z" transform="translate(-527.712 -182.67)" fill="#c5c918"/>
</svg>
