<svg xmlns="http://www.w3.org/2000/svg" width="32.76" height="43" viewBox="0 0 32.76 43">
  <g id="Group_188" data-name="Group 188" transform="translate(-510.13 -158.72)">
    <path id="Path_389" data-name="Path 389" d="M531.49,225.67h25.2a3.79,3.79,0,0,0,3.78-3.78V195.27h-8.82a3.78,3.78,0,0,1-3.78-3.78v-8.82H531.49a3.79,3.79,0,0,0-3.78,3.78v35.44a3.79,3.79,0,0,0,3.78,3.78Zm5-25.28h15.12a1.26,1.26,0,1,1,0,2.52H536.53a1.26,1.26,0,1,1,0-2.52Zm0,5h15.12a1.26,1.26,0,1,1,0,2.52H536.53a1.26,1.26,0,1,1,0-2.52Zm0,5h15.12a1.26,1.26,0,1,1,0,2.52H536.53a1.26,1.26,0,0,1,0-2.52Zm0,5h10.08a1.26,1.26,0,1,1,0,2.52H536.53a1.26,1.26,0,0,1,0-2.52Z" transform="translate(-17.58 -23.95)" fill="#c5d32f"/>
    <path id="Path_390" data-name="Path 390" d="M551.65,192.75h8.08l-9.34-9.34v8.08A1.26,1.26,0,0,0,551.65,192.75Z" transform="translate(-17.58 -23.95)" fill="#c5d32f"/>
  </g>
</svg>
