<svg xmlns="http://www.w3.org/2000/svg" width="53.29" height="51.16" viewBox="0 0 53.29 51.16">
  <path id="Path_429" data-name="Path 429" d="M1128.3,270.73,1102.57,247a.92.92,0,0,0-1.24,0l-25.73,23.69a.906.906,0,0,0-.05,1.3l2.74,3a.92.92,0,0,0,1.3.05l1.85-1.7V297a.92.92,0,0,0,.92.92h14.7a.92.92,0,0,0,.92-.92V285.2a1.16,1.16,0,0,1,1.19-1.17h5.55a1.19,1.19,0,0,1,1.2,1.17V297a.92.92,0,0,0,.92.92h14.7a.92.92,0,0,0,.91-.92V273.36l1.86,1.7a.88.88,0,0,0,.62.25.93.93,0,0,0,.68-.3l2.74-3a1,1,0,0,0,.24-.66.93.93,0,0,0-.29-.62Z" transform="translate(-1075.3 -246.76)" fill="#c5d32f"/>
</svg>
