<svg xmlns="http://www.w3.org/2000/svg" width="53.291" height="51.161" viewBox="0 0 53.291 51.161">
  <path id="Path_605" data-name="Path 605" d="M1064.84,269.88l-25.72-23.69a.93.93,0,0,0-1.25,0l-25.72,23.69a.94.94,0,0,0-.3.64.91.91,0,0,0,.25.66l2.74,3a.92.92,0,0,0,1.3,0l1.85-1.7v23.68a.92.92,0,0,0,.92.92h14.7a.92.92,0,0,0,.92-.92V284.35a1.16,1.16,0,0,1,1.19-1.17h5.55a1.19,1.19,0,0,1,1.2,1.17v11.84a.92.92,0,0,0,.91.92h14.7a.92.92,0,0,0,.92-.92V272.51l1.86,1.7a.88.88,0,0,0,.62.25.89.89,0,0,0,.67-.3l2.75-3a.92.92,0,0,0-.06-1.3Z" transform="translate(-1011.849 -245.949)" fill="#c8c8c8"/>
</svg>
