<svg xmlns="http://www.w3.org/2000/svg" width="65.648" height="65.648" viewBox="0 0 65.648 65.648">
  <g id="Group_69" data-name="Group 69" transform="translate(-702.099 -119.663)">
    <rect id="Rectangle_10" data-name="Rectangle 10" width="65.648" height="65.648" rx="20.515" transform="translate(702.099 119.663)" fill="#c5c918"/>
    <g id="Group_68" data-name="Group 68">
      <g id="Group_67" data-name="Group 67">
        <path id="Path_104" data-name="Path 104" d="M725.426,168.583Zm18.994-33.634Z" fill="#fff"/>
        <g id="Group_66" data-name="Group 66">
          <path id="Path_105" data-name="Path 105" d="M734.923,164.335a11.849,11.849,0,1,0-11.85-11.845A11.861,11.861,0,0,0,734.923,164.335Zm-8.975-11.845a8.975,8.975,0,1,1,8.975,8.976A8.989,8.989,0,0,1,725.948,152.49Z" fill="#fff"/>
        </g>
        <path id="Path_106" data-name="Path 106" d="M746.741,172.169H723.1a8.054,8.054,0,0,1-8.045-8.045V140.849A8.054,8.054,0,0,1,723.1,132.8h23.636a8.054,8.054,0,0,1,8.045,8.045v23.275A8.054,8.054,0,0,1,746.741,172.169ZM723.1,135.739a5.116,5.116,0,0,0-5.109,5.11v23.275a5.116,5.116,0,0,0,5.109,5.11h23.636a5.116,5.116,0,0,0,5.11-5.11V140.849a5.116,5.116,0,0,0-5.11-5.11Z" fill="#fff"/>
      </g>
      <path id="Path_107" data-name="Path 107" d="M746.934,139.286a1.87,1.87,0,1,0,1.872,1.873A1.874,1.874,0,0,0,746.934,139.286Z" fill="#fff"/>
    </g>
  </g>
</svg>
