<svg xmlns="http://www.w3.org/2000/svg" width="55.377" height="43.19" viewBox="0 0 55.377 43.19">
  <path id="Path_331" data-name="Path 331" d="M499.85,365.17h52.91a1.24,1.24,0,0,0,1.24-1.25V362.8a.13.13,0,0,0,0-.06,1.32,1.32,0,0,0-.13-.56l-5.42-13.62V323.22a1.24,1.24,0,0,0-1.24-1.24H505.39a1.25,1.25,0,0,0-1.25,1.24v25.34l-5.45,13.72a1.4,1.4,0,0,0-.06.19h0a1.5,1.5,0,0,0,0,.22h0v1.18a1.25,1.25,0,0,0,1.22,1.3Zm21.09-4,1.14-3.52h8.44l1.14,3.52Zm-13.13-36h37v21.7h-37Z" transform="translate(-498.626 -321.98)" fill="#c5d32f"/>
</svg>
