<svg xmlns="http://www.w3.org/2000/svg" width="55.374" height="43.19" viewBox="0 0 55.374 43.19">
  <path id="Path_600" data-name="Path 600" d="M571.87,365.17h52.91a1.24,1.24,0,0,0,1.24-1.25v-1.18a1.191,1.191,0,0,0-.14-.56l-5.41-13.62V323.22a1.25,1.25,0,0,0-1.24-1.24H577.41a1.25,1.25,0,0,0-1.25,1.24v25.34l-5.45,13.72a1.4,1.4,0,0,0-.06.19h0a1.5,1.5,0,0,0,0,.22h0v1.18a1.25,1.25,0,0,0,1.22,1.3Zm21.09-4,1.14-3.52h8.44l1.14,3.52Zm-13.14-36h37v21.7h-37Z" transform="translate(-570.646 -321.98)" fill="#c8c8c8"/>
</svg>
