<svg xmlns="http://www.w3.org/2000/svg" width="55.41" height="43.189" viewBox="0 0 55.41 43.189">
  <path id="Path_31" data-name="Path 31" d="M499.848,365.167h52.91a1.246,1.246,0,0,0,1.247-1.246V362.8c0-.018.006-.036.006-.055a1.237,1.237,0,0,0-.136-.565l-5.41-13.619V323.225a1.247,1.247,0,0,0-1.247-1.247h-41.83a1.247,1.247,0,0,0-1.247,1.247v25.334l-5.452,13.724a1.293,1.293,0,0,0-.056.187l-.009.049a1.153,1.153,0,0,0-.022.219v1.183A1.246,1.246,0,0,0,499.848,365.167Zm21.093-4.023,1.141-3.527h8.442l1.141,3.527Zm-13.134-35.985H544.8v21.7H507.807Z" transform="translate(-498.601 -321.978)" fill="#c5c918"/>
</svg>
