<svg xmlns="http://www.w3.org/2000/svg" width="43.722" height="43.723" viewBox="0 0 43.722 43.723">
  <g id="Group_8" data-name="Group 8" transform="translate(-263.81 -83.317)">
    <path id="Rectangle_6" data-name="Rectangle 6" d="M8.981,0h25.76a8.981,8.981,0,0,1,8.981,8.981V34.743a8.98,8.98,0,0,1-8.98,8.98H8.981A8.981,8.981,0,0,1,0,34.743V8.981A8.981,8.981,0,0,1,8.981,0Z" transform="translate(263.81 83.317)" fill="#c5c918"/>
    <path id="Path_13" data-name="Path 13" d="M286.037,90c-8.823,0-15.664,6.465-15.664,15.194a14.87,14.87,0,0,0,4.918,11.239,1.236,1.236,0,0,1,.419.893l-.2,3.213a1.146,1.146,0,0,0,1.758,1.108l3.393-1.8a1.258,1.258,0,0,1,.838-.062,17.159,17.159,0,0,0,4.535.6c8.822,0,15.663-6.466,15.663-15.194S294.859,90,286.037,90Zm9.41,10.984-4.606,8a2.349,2.349,0,0,1-3.4.627l-3.662-2.745a.939.939,0,0,0-1.132,0l-4.942,4.46a.742.742,0,0,1-1.077-.987l4.6-8.008a2.35,2.35,0,0,1,3.4-.626l3.661,2.745a.942.942,0,0,0,1.132,0l4.942-4.461A.746.746,0,0,1,295.447,100.982Z" fill="#fff"/>
  </g>
</svg>
