<svg xmlns="http://www.w3.org/2000/svg" xmlns:xlink="http://www.w3.org/1999/xlink" width="67.73" height="67.73" viewBox="0 0 67.73 67.73">
  <defs>
    <clipPath id="clip-path">
      <rect id="Rectangle_142" data-name="Rectangle 142" width="67.73" height="67.73" transform="translate(1226.27 212.35)" fill="none"/>
    </clipPath>
  </defs>
  <g id="Group_186" data-name="Group 186" transform="translate(-1226.27 -212.35)" clip-path="url(#clip-path)">
    <rect id="Rectangle_141" data-name="Rectangle 141" width="67.73" height="67.73" rx="13.91" transform="translate(1226.26 212.35)" fill="#c6d42f"/>
    <path id="Path_736" data-name="Path 736" d="M1296.48,281.69l-4.33-2.88-3.85-2.57a1.71,1.71,0,0,0-2.29.37l-2.38,3.06a1.69,1.69,0,0,1-2.17.45c-1.61-.9-3.53-1.74-7.74-6s-5.07-6.13-6-7.74a1.69,1.69,0,0,1,.45-2.17l3.06-2.38a1.7,1.7,0,0,0,.37-2.29l-2.48-3.73-3-4.45a1.7,1.7,0,0,0-2.3-.51l-3.42,2.05a4.2,4.2,0,0,0-1.9,2.45c-.93,3.41-1.12,10.94,10.94,23s19.58,11.87,23,10.94a4.25,4.25,0,0,0,2.46-1.9l2-3.42a1.72,1.72,0,0,0-.52-2.3" transform="translate(-17.58 -23.95)" fill="#fff"/>
    <path id="Path_737" data-name="Path 737" d="M1280.4,256.69a11.47,11.47,0,0,1,11.45,11.45.68.68,0,1,0,1.35,0,12.8,12.8,0,0,0-12.8-12.79.67.67,0,1,0,0,1.34" transform="translate(-17.58 -23.95)" fill="#fff"/>
    <path id="Path_738" data-name="Path 738" d="M1280.4,260.73a7.42,7.42,0,0,1,7.41,7.41.68.68,0,1,0,1.35,0,8.76,8.76,0,0,0-8.76-8.75.67.67,0,1,0,0,1.34" transform="translate(-17.58 -23.95)" fill="#fff"/>
    <path id="Path_739" data-name="Path 739" d="M1280.4,264.77a3.38,3.38,0,0,1,3.37,3.37.68.68,0,0,0,.67.68.69.69,0,0,0,.68-.68,4.73,4.73,0,0,0-4.72-4.71.67.67,0,0,0,0,1.34" transform="translate(-17.58 -23.95)" fill="#fff"/>
  </g>
</svg>
