<svg xmlns="http://www.w3.org/2000/svg" width="43.006" height="43.007" viewBox="0 0 43.006 43.007">
  <g id="Group_35" data-name="Group 35" transform="translate(-237.037 -333.458)">
    <g id="Group_34" data-name="Group 34">
      <g id="Group_33" data-name="Group 33">
        <path id="Path_42" data-name="Path 42" d="M279.206,367.654l-4.767-3.178-4.239-2.825a1.878,1.878,0,0,0-2.521.409l-2.622,3.372a1.869,1.869,0,0,1-2.385.494c-1.78-.99-3.884-1.922-8.527-6.571s-5.581-6.747-6.571-8.527a1.867,1.867,0,0,1,.495-2.384l3.371-2.623a1.877,1.877,0,0,0,.409-2.521l-2.738-4.108-3.265-4.9a1.878,1.878,0,0,0-2.528-.569l-3.766,2.26a4.6,4.6,0,0,0-2.089,2.7c-1.03,3.755-1.238,12.038,12.037,25.312s21.557,13.067,25.311,12.037a4.6,4.6,0,0,0,2.7-2.09l2.259-3.766A1.878,1.878,0,0,0,279.206,367.654Z" fill="#c5c918"/>
        <path id="Path_43" data-name="Path 43" d="M261.505,340.131a12.62,12.62,0,0,1,12.6,12.6.742.742,0,1,0,1.483,0,14.1,14.1,0,0,0-14.088-14.088.742.742,0,1,0,0,1.483Z" fill="#c5c918"/>
        <path id="Path_44" data-name="Path 44" d="M261.505,344.58a8.166,8.166,0,0,1,8.156,8.156.742.742,0,0,0,1.483,0,9.65,9.65,0,0,0-9.639-9.639.742.742,0,1,0,0,1.483Z" fill="#c5c918"/>
        <path id="Path_45" data-name="Path 45" d="M261.505,349.029a3.711,3.711,0,0,1,3.707,3.707.742.742,0,1,0,1.483,0,5.2,5.2,0,0,0-5.19-5.19.742.742,0,1,0,0,1.483Z" fill="#c5c918"/>
      </g>
    </g>
  </g>
</svg>
