<svg xmlns="http://www.w3.org/2000/svg" xmlns:xlink="http://www.w3.org/1999/xlink" width="56.62" height="42.77" viewBox="0 0 56.62 42.77">
  <defs>
    <linearGradient id="linear-gradient" y1="0.498" x2="1" y2="0.498" gradientUnits="objectBoundingBox">
      <stop offset="0.1" stop-color="#592329"/>
      <stop offset="0.18" stop-color="#792e30"/>
      <stop offset="0.29" stop-color="#9d3b38"/>
      <stop offset="0.41" stop-color="#bc453f"/>
      <stop offset="0.54" stop-color="#d34e44"/>
      <stop offset="0.67" stop-color="#e45348"/>
      <stop offset="0.82" stop-color="#ee574a"/>
      <stop offset="1" stop-color="#f1584b"/>
    </linearGradient>
    <linearGradient id="linear-gradient-2" x1="0" y1="0.498" x2="1" y2="0.498" xlink:href="#linear-gradient"/>
    <linearGradient id="linear-gradient-3" x1="0" y1="0.498" x2="1" y2="0.498" xlink:href="#linear-gradient"/>
    <linearGradient id="linear-gradient-4" x1="0" y1="0.501" x2="1" y2="0.501" xlink:href="#linear-gradient"/>
    <linearGradient id="linear-gradient-5" x1="0" y1="0.501" x2="1.001" y2="0.501" xlink:href="#linear-gradient"/>
    <linearGradient id="linear-gradient-6" x1="0" y1="0.5" x2="1" y2="0.5" xlink:href="#linear-gradient"/>
  </defs>
  <g id="Group_194" data-name="Group 194" transform="translate(-838.87 -653.2)">
    <g id="Group_193" data-name="Group 193">
      <path id="Path_675" data-name="Path 675" d="M891.88,684.54a8.15,8.15,0,0,1,1.88,3.59,12.29,12.29,0,0,1,.23,4.41c-.07.59-.18,1.26-.33,2a6.53,6.53,0,0,0,4.64,1.79c5.46,0,7.43-5.34,7.94-9.72.64-5.4-2-9.46-7.94-9.46-4.67,0-7.29,2.51-7.89,6.19a7.606,7.606,0,0,1,1.47,1.24" transform="translate(-17.58 -23.95)" fill="url(#linear-gradient)"/>
      <path id="Path_676" data-name="Path 676" d="M913.07,709a36.208,36.208,0,0,0-.56-5.08c-.37-2-.84-5-2.66-6.32a15.135,15.135,0,0,0-3.6-1.47c-.59-.23-1.11-.45-1.61-.7a8.84,8.84,0,0,1-11.5,1.05,13.349,13.349,0,0,1-1.39,3,11.52,11.52,0,0,0,1.79.82c.31.12.65.23,1,.34a10.451,10.451,0,0,1,3,1.37c2.33,1.7,2.91,4.89,3.33,7.22v.25c.22,1.19.38,2.36.48,3.5a51.112,51.112,0,0,0,5.54-.88,32.319,32.319,0,0,0,4.34-1.17c1.13-.39,1.8-.58,1.75-1.9" transform="translate(-17.58 -23.95)" fill="url(#linear-gradient-2)"/>
      <path id="Path_677" data-name="Path 677" d="M877.64,684.83a8.24,8.24,0,0,0-1.87,3.59,12.283,12.283,0,0,0-.23,4.41c.07.59.17,1.25.32,2a6.5,6.5,0,0,1-4.63,1.78c-5.46,0-7.43-5.33-7.94-9.71-.64-5.4,2-9.46,7.94-9.46,4.67,0,7.29,2.5,7.89,6.19a7.61,7.61,0,0,0-1.48,1.24" transform="translate(-17.58 -23.95)" fill="url(#linear-gradient-3)"/>
      <path id="Path_678" data-name="Path 678" d="M856.45,709.27a36.069,36.069,0,0,1,.57-5.08c.37-2,.84-5,2.65-6.32a15.209,15.209,0,0,1,3.61-1.47,17.408,17.408,0,0,0,1.6-.7,8.85,8.85,0,0,0,11.51,1,13.575,13.575,0,0,0,1.39,3,12.2,12.2,0,0,1-1.8.82c-.3.12-.64.22-1,.34a10.451,10.451,0,0,0-3,1.37c-2.34,1.7-2.91,4.89-3.33,7.21l-.05.26c-.21,1.19-.37,2.36-.47,3.5-1.87-.19-3.72-.51-5.54-.88a32.845,32.845,0,0,1-4.35-1.17c-1.13-.4-1.79-.58-1.75-1.9" transform="translate(-17.58 -23.95)" fill="url(#linear-gradient-4)"/>
      <path id="Path_679" data-name="Path 679" d="M900,709.68v-.25c-.39-2.17-.93-5.15-3-6.64a9.477,9.477,0,0,0-2.77-1.23c-.37-.12-.72-.23-1.06-.36s-.92-.37-1.33-.57a8.77,8.77,0,0,1-13.9,0c-.41.2-.85.38-1.34.57-.33.13-.68.24-1,.36a9.48,9.48,0,0,0-2.77,1.23c-2,1.49-2.58,4.47-3,6.64l-.05.25a36.56,36.56,0,0,0-.58,5.21c-.07,1.94,1.16,2.37,2.25,2.75h.12a33.85,33.85,0,0,0,4.47,1.21,45.708,45.708,0,0,0,8.86,1.07h0a45.806,45.806,0,0,0,8.87-1.07,34.273,34.273,0,0,0,4.47-1.21h.11c1.09-.38,2.32-.81,2.26-2.75a36.631,36.631,0,0,0-.59-5.21" transform="translate(-17.58 -23.95)" fill="url(#linear-gradient-5)"/>
    </g>
    <path id="Path_680" data-name="Path 680" d="M884.92,702.49c5.46,0,7.42-5.33,7.94-9.71.63-5.4-2-9.46-7.94-9.46s-8.58,4.06-7.94,9.46c.51,4.38,2.48,9.72,7.94,9.71" transform="translate(-17.58 -23.95)" fill="url(#linear-gradient-6)"/>
  </g>
</svg>
