<svg xmlns="http://www.w3.org/2000/svg" xmlns:xlink="http://www.w3.org/1999/xlink" width="97" height="73.399" viewBox="0 0 97 73.399">
  <defs>
    <clipPath id="clip-path">
      <rect id="Rectangle_22" data-name="Rectangle 22" width="97" height="73.399" transform="translate(1151.791 31.339)" fill="#fff"/>
    </clipPath>
  </defs>
  <g id="Group_181" data-name="Group 181" transform="translate(-1151.791 -31.339)">
    <g id="Group_85" data-name="Group 85" clip-path="url(#clip-path)">
      <path id="Path_121" data-name="Path 121" d="M1212.487,44.066a14.048,14.048,0,0,1,3.219,6.15,20.983,20.983,0,0,1,.382,7.551c-.119,1.008-.294,2.151-.55,3.359a11.149,11.149,0,0,0,7.945,3.056c9.354,0,12.72-9.136,13.6-16.64,1.086-9.245-3.4-16.2-13.6-16.2-8.008,0-12.491,4.286-13.525,10.6a12.886,12.886,0,0,1,2.529,2.127" fill="#fff"/>
      <path id="Path_122" data-name="Path 122" d="M1248.787,85.937a60.744,60.744,0,0,0-.973-8.7c-.631-3.473-1.435-8.564-4.543-10.828-1.8-1.308-4.126-1.737-6.183-2.526a27.128,27.128,0,0,1-2.741-1.2,15.142,15.142,0,0,1-19.711,1.8,22.392,22.392,0,0,1-2.377,5.083,20.294,20.294,0,0,0,3.073,1.412c.526.2,1.1.386,1.716.581a17.538,17.538,0,0,1,5.212,2.35c4,2.913,4.985,8.372,5.7,12.358l.077.43c.372,2.044.645,4.052.821,6a93.157,93.157,0,0,0,9.485-1.506,57.034,57.034,0,0,0,7.441-2c1.936-.68,3.077-1,3-3.252" fill="#fff"/>
      <path id="Path_123" data-name="Path 123" d="M1188.095,44.559a14.046,14.046,0,0,0-3.219,6.151,20.973,20.973,0,0,0-.382,7.55c.119,1.008.294,2.151.55,3.359a11.149,11.149,0,0,1-7.945,3.056c-9.354,0-12.72-9.136-13.6-16.64-1.086-9.245,3.4-16.2,13.6-16.2,8.008,0,12.491,4.286,13.526,10.6a12.856,12.856,0,0,0-2.53,2.127" fill="#fff"/>
      <path id="Path_124" data-name="Path 124" d="M1151.8,86.429a60.728,60.728,0,0,1,.973-8.7c.631-3.473,1.435-8.564,4.543-10.828,1.8-1.308,4.126-1.738,6.183-2.526a27.37,27.37,0,0,0,2.741-1.2,15.14,15.14,0,0,0,19.711,1.8,22.387,22.387,0,0,0,2.377,5.083,20.305,20.305,0,0,1-3.073,1.412c-.526.2-1.1.386-1.716.581a17.549,17.549,0,0,0-5.212,2.35c-4,2.913-4.985,8.372-5.705,12.358l-.077.43c-.372,2.044-.645,4.052-.821,6a93.157,93.157,0,0,1-9.485-1.506,57.031,57.031,0,0,1-7.441-2c-1.936-.68-3.077-1-3-3.252" fill="#fff"/>
      <path id="Path_125" data-name="Path 125" d="M1226.464,87.135l-.078-.432c-.672-3.728-1.594-8.833-5.085-11.375a15.992,15.992,0,0,0-4.751-2.117c-.635-.2-1.234-.394-1.805-.612-.832-.319-1.582-.632-2.284-.977a15.021,15.021,0,0,1-23.814,0c-.7.345-1.452.658-2.285.977-.57.218-1.17.409-1.8.611a16.025,16.025,0,0,0-4.752,2.118c-3.492,2.542-4.412,7.648-5.085,11.377l-.078.43a62.5,62.5,0,0,0-1,8.923c-.116,3.316,1.993,4.055,3.855,4.707l.2.071a58.876,58.876,0,0,0,7.654,2.063,77.675,77.675,0,0,0,15.187,1.839h.022a77.647,77.647,0,0,0,15.186-1.839,58.841,58.841,0,0,0,7.654-2.063l.2-.07c1.862-.653,3.972-1.392,3.856-4.708a62.565,62.565,0,0,0-1-8.923" fill="#fff"/>
      <path id="Path_126" data-name="Path 126" d="M1200.554,74.819c9.355,0,12.72-9.136,13.6-16.641,1.086-9.245-3.4-16.2-13.6-16.2s-14.688,6.957-13.6,16.2c.881,7.5,4.246,16.642,13.6,16.641" fill="#fff"/>
    </g>
  </g>
</svg>
