<svg xmlns="http://www.w3.org/2000/svg" xmlns:xlink="http://www.w3.org/1999/xlink" width="50" height="35" viewBox="0 0 50 35">
  <defs>
    <clipPath id="clip-path">
      <rect id="Rectangle_22" data-name="Rectangle 22" width="50" height="35" fill="#fff"/>
    </clipPath>
  </defs>
  <g id="Group_190" data-name="Group 190" transform="translate(-1151.791 -31.339)">
    <g id="Group_85" data-name="Group 85" transform="translate(1151.791 31.339)" clip-path="url(#clip-path)">
      <path id="Path_121" data-name="Path 121" d="M1211.261,37.408a6.546,6.546,0,0,1,1.659,2.933,9.276,9.276,0,0,1,.2,3.6c-.062.481-.152,1.026-.284,1.6a6.008,6.008,0,0,0,4.1,1.457c4.822,0,6.557-4.356,7.011-7.935.56-4.408-1.75-7.726-7.011-7.726-4.128,0-6.439,2.044-6.972,5.055a6.542,6.542,0,0,1,1.3,1.014" transform="translate(-1179.975 -31.339)" fill="#fff"/>
      <path id="Path_122" data-name="Path 122" d="M1231.088,73.769a26.894,26.894,0,0,0-.5-4.15c-.325-1.656-.74-4.084-2.342-5.163a13.937,13.937,0,0,0-3.187-1.2,14.617,14.617,0,0,1-1.413-.572,7.724,7.724,0,0,1-5.6,2.208,7.9,7.9,0,0,1-4.56-1.349,10.337,10.337,0,0,1-1.225,2.424,10.879,10.879,0,0,0,1.584.673c.271.1.569.184.885.277a9.413,9.413,0,0,1,2.687,1.121c2.062,1.389,2.57,3.992,2.941,5.893l.04.205c.192.975.332,1.932.423,2.863,1.646-.152,3.283-.412,4.889-.718a31.319,31.319,0,0,0,3.836-.956c1-.324,1.586-.475,1.545-1.551" transform="translate(-1181.09 -47.735)" fill="#fff"/>
      <path id="Path_123" data-name="Path 123" d="M1176.1,37.9a6.546,6.546,0,0,0-1.659,2.933,9.276,9.276,0,0,0-.2,3.6c.062.481.151,1.026.283,1.6a6.007,6.007,0,0,1-4.1,1.457c-4.822,0-6.557-4.356-7.011-7.935-.56-4.408,1.75-7.726,7.011-7.726,4.128,0,6.439,2.044,6.972,5.055a6.53,6.53,0,0,0-1.3,1.014" transform="translate(-1157.387 -31.597)" fill="#fff"/>
      <path id="Path_124" data-name="Path 124" d="M1151.793,74.262a26.871,26.871,0,0,1,.5-4.15c.325-1.656.74-4.084,2.342-5.163a13.915,13.915,0,0,1,3.187-1.2,14.728,14.728,0,0,0,1.413-.572,7.728,7.728,0,0,0,5.6,2.208,7.9,7.9,0,0,0,4.56-1.349,10.341,10.341,0,0,0,1.225,2.424,10.877,10.877,0,0,1-1.584.673c-.271.1-.569.184-.884.277a9.422,9.422,0,0,0-2.687,1.121c-2.062,1.389-2.57,3.992-2.941,5.893l-.04.205c-.192.975-.332,1.932-.423,2.862-1.646-.152-3.284-.412-4.889-.718a31.319,31.319,0,0,1-3.836-.956c-1-.324-1.586-.475-1.545-1.551" transform="translate(-1151.791 -47.992)" fill="#fff"/>
      <path id="Path_125" data-name="Path 125" d="M1200.87,79.019l-.04-.206c-.346-1.778-.822-4.212-2.621-5.424a8.589,8.589,0,0,0-2.449-1.009c-.327-.1-.636-.188-.931-.292-.429-.152-.815-.3-1.177-.466a8.134,8.134,0,0,1-12.275,0c-.362.165-.749.314-1.178.466-.294.1-.6.2-.93.291a8.6,8.6,0,0,0-2.449,1.01c-1.8,1.212-2.274,3.647-2.621,5.425l-.04.205a27.655,27.655,0,0,0-.513,4.255c-.06,1.581,1.027,1.934,1.987,2.245l.1.034a32.324,32.324,0,0,0,3.945.984,43.136,43.136,0,0,0,7.828.877h.011a43.12,43.12,0,0,0,7.828-.877,32.3,32.3,0,0,0,3.945-.984l.1-.033c.96-.311,2.047-.664,1.988-2.245a27.665,27.665,0,0,0-.514-4.255" transform="translate(-1162.379 -52.413)" fill="#fff"/>
      <path id="Path_126" data-name="Path 126" d="M1193.887,57.637c4.822,0,6.557-4.356,7.011-7.935.56-4.408-1.75-7.726-7.011-7.726s-7.571,3.317-7.011,7.726c.454,3.579,2.188,7.936,7.011,7.935" transform="translate(-1168.751 -36.904)" fill="#fff"/>
    </g>
  </g>
</svg>
