<svg xmlns="http://www.w3.org/2000/svg" width="44.417" height="42.877" viewBox="0 0 44.417 42.877">
  <g id="Group_124" data-name="Group 124" transform="translate(-1005.389 -408)">
    <path id="Path_187" data-name="Path 187" d="M1034.846,408H1014.9a3.364,3.364,0,0,0-3.364,3.364v33.25a3.364,3.364,0,0,0,3.364,3.364h26.808a3.364,3.364,0,0,0,3.364-3.364V418.228Z" fill="#e0e0df"/>
    <path id="Path_188" data-name="Path 188" d="M1038.21,418.228a3.364,3.364,0,0,1-3.364-3.363V408l10.229,10.228Z" fill="#a5a5a5"/>
    <rect id="Rectangle_37" data-name="Rectangle 37" width="25.843" height="14.826" transform="translate(1005.389 418.316)" fill="#da091b"/>
    <path id="Path_189" data-name="Path 189" d="M1005.389,433.142l6.132,4.9v-4.9Z" fill="#9d0d1d"/>
    <circle id="Ellipse_11" data-name="Ellipse 11" cx="9.017" cy="9.017" r="9.017" transform="translate(1031.771 432.843)" fill="#88ba2a"/>
    <g id="Group_121" data-name="Group 121">
      <path id="Path_190" data-name="Path 190" d="M1045.083,442.331l-4.294,5.4-4.294-5.4Z" fill="#fff"/>
      <rect id="Rectangle_38" data-name="Rectangle 38" width="3.267" height="5.491" transform="translate(1039.155 437.549)" fill="#fff"/>
    </g>
    <g id="Group_123" data-name="Group 123">
      <g id="Group_122" data-name="Group 122">
        <path id="Path_191" data-name="Path 191" d="M1009.3,422.209h2.721c1.422,0,2.582.74,2.582,2.2,0,1.538-1.119,2.315-2.7,2.315h-1.255v3H1009.3Zm1.346,3.443h1.17c.867,0,1.42-.319,1.42-1.215,0-.805-.57-1.15-1.384-1.15h-1.206Z" fill="#fff"/>
        <path id="Path_192" data-name="Path 192" d="M1015.784,422.209h2.593a3.272,3.272,0,0,1,3.488,3.6c0,2.423-1.313,3.915-3.568,3.915h-2.513Zm1.35,6.442h1.134c1.466,0,2.206-1.062,2.206-2.819,0-1.517-.746-2.537-2.2-2.537h-1.145Z" fill="#fff"/>
        <path id="Path_193" data-name="Path 193" d="M1023.26,422.209h4.722v1.118h-3.4v2.091h3.195v1.1h-3.195v3.2h-1.318Z" fill="#fff"/>
      </g>
    </g>
  </g>
</svg>
