<svg xmlns="http://www.w3.org/2000/svg" width="24.369" height="43" viewBox="0 0 24.369 43">
  <g id="Group_22" data-name="Group 22" transform="translate(-380.483 -258.366)">
    <path id="Rectangle_9" data-name="Rectangle 9" d="M.544,0H2.323a.544.544,0,0,1,.544.544V.89a.543.543,0,0,1-.543.543H.543A.543.543,0,0,1,0,.89V.544A.544.544,0,0,1,.544,0Z" transform="translate(391.233 296.349)" fill="#c5c918"/>
    <path id="Path_24" data-name="Path 24" d="M404.851,294.2V262.666h0v-1.709a2.6,2.6,0,0,0-2.591-2.591H383.074a2.594,2.594,0,0,0-2.591,2.591v1.709h0v36.109a2.594,2.594,0,0,0,2.591,2.591h19.186a2.594,2.594,0,0,0,2.591-2.591V294.2Zm-4.3-33.683h.716a.717.717,0,1,1,0,1.433h-.716a.717.717,0,1,1,0-1.433Zm-11.467,0h7.167a.717.717,0,1,1,0,1.433h-7.167a.717.717,0,0,1,0-1.433Zm6.45,36.724a1.978,1.978,0,0,1-1.976,1.976h-1.78a1.979,1.979,0,0,1-1.977-1.976v-.347a1.979,1.979,0,0,1,1.977-1.977h1.78a1.979,1.979,0,0,1,1.976,1.977Z" fill="#c5c918"/>
  </g>
</svg>
