<svg xmlns="http://www.w3.org/2000/svg" width="43.356" height="43.357" viewBox="0 0 43.356 43.357">
  <g id="Group_192" data-name="Group 192" transform="translate(-97.891 -181.877)">
    <path id="Rectangle_8" data-name="Rectangle 8" d="M8.9,0H34.449a8.908,8.908,0,0,1,8.908,8.908V34.449a8.908,8.908,0,0,1-8.908,8.908H8.908A8.908,8.908,0,0,1,0,34.449V8.9A8.9,8.9,0,0,1,8.9,0Z" transform="translate(97.891 181.877)" fill="#c5c918"/>
    <path id="Path_16" data-name="Path 16" d="M107.234,203.565a12.356,12.356,0,0,0,14.677,12.141,7.215,7.215,0,0,0,9.853-9.985,12.357,12.357,0,0,0-14.446-14.3,7.214,7.214,0,0,0-9.885,9.952A12.319,12.319,0,0,0,107.234,203.565Zm12.493-8.782c3.987.234,6.321,1.987,6.548,3.625a1.679,1.679,0,0,1-1.835,1.9c-1.8,0-1.987-2.4-5.092-2.4-1.4,0-2.583.582-2.583,1.845,0,2.64,9.949,1.107,9.949,6.918,0,3.35-2.681,5.545-6.684,5.545-3.52,0-7.058-1.6-7.04-4.343a1.542,1.542,0,0,1,1.447-1.59c2.073,0,2.054,3.08,5.355,3.08,2.315,0,3.106-1.263,3.106-2.144,0-3.18-10.008-1.23-10.008-7.21C112.89,196.77,115.549,194.538,119.727,194.783Z" fill="#fff"/>
  </g>
</svg>
