<svg xmlns="http://www.w3.org/2000/svg" width="137.758" height="136.283" viewBox="0 0 137.758 136.283">
  <g id="Group_186" data-name="Group 186" transform="translate(-684.047 -450.877)">
    <g id="Group_184" data-name="Group 184" transform="translate(-16 401.849)">
      <rect id="Rectangle_10" data-name="Rectangle 10" width="65.648" height="65.648" rx="20.515" transform="translate(702.099 119.663)" fill="#c5c918"/>
      <g id="Group_68" data-name="Group 68">
        <g id="Group_67" data-name="Group 67">
          <path id="Path_104" data-name="Path 104" d="M725.426,168.583Zm18.994-33.634Z" fill="#fff"/>
          <g id="Group_66" data-name="Group 66">
            <path id="Path_105" data-name="Path 105" d="M734.923,164.335a11.849,11.849,0,1,0-11.85-11.845A11.861,11.861,0,0,0,734.923,164.335Zm-8.975-11.845a8.975,8.975,0,1,1,8.975,8.976A8.989,8.989,0,0,1,725.948,152.49Z" fill="#fff"/>
          </g>
          <path id="Path_106" data-name="Path 106" d="M746.741,172.169H723.1a8.054,8.054,0,0,1-8.045-8.045V140.849A8.054,8.054,0,0,1,723.1,132.8h23.636a8.054,8.054,0,0,1,8.045,8.045v23.275A8.054,8.054,0,0,1,746.741,172.169ZM723.1,135.739a5.116,5.116,0,0,0-5.109,5.11v23.275a5.116,5.116,0,0,0,5.109,5.11h23.636a5.116,5.116,0,0,0,5.11-5.11V140.849a5.116,5.116,0,0,0-5.11-5.11Z" fill="#fff"/>
        </g>
        <path id="Path_107" data-name="Path 107" d="M746.934,139.286a1.87,1.87,0,1,0,1.872,1.873A1.874,1.874,0,0,0,746.934,139.286Z" fill="#fff"/>
      </g>
    </g>
    <g id="Group_182" data-name="Group 182" transform="translate(-18.053 406.327)">
      <rect id="Rectangle_15" data-name="Rectangle 15" width="65.65" height="65.65" rx="20.515" transform="translate(702.099 44.55)" fill="#c5c918"/>
      <path id="Path_113" data-name="Path 113" d="M738.777,73.929V69.786a2.2,2.2,0,0,1,2.29-2.49h5.815V58.424l-8.007-.036c-8.886,0-10.9,6.621-10.9,10.86v4.681h-5.137V84.293h5.182v25.9h10.361v-25.9h7.69l.946-10.364Z" transform="translate(0.001 0.002)" fill="#fff"/>
    </g>
    <g id="Group_183" data-name="Group 183" transform="translate(-22.081 406.327)">
      <rect id="Rectangle_16" data-name="Rectangle 16" width="65.648" height="65.648" rx="20.515" transform="translate(778.239 44.55)" fill="#c5c918"/>
      <path id="Path_114" data-name="Path 114" d="M833.808,63.477a19.226,19.226,0,0,1-4.973,1.271,9.364,9.364,0,0,0,4.036-4.79.146.146,0,0,0-.21-.176,19.1,19.1,0,0,1-5.677,2.072,9.52,9.52,0,0,0-6.914-2.944,9.328,9.328,0,0,0-9.224,11.447,27.049,27.049,0,0,1-19.472-9.683.053.053,0,0,0-.087.007,9.234,9.234,0,0,0,2.8,12.267.057.057,0,0,1-.035.105,9.554,9.554,0,0,1-4.011-1.115.048.048,0,0,0-.073.042,12.588,12.588,0,0,0,.64,3.411,9.556,9.556,0,0,0,6.957,5.765,9.917,9.917,0,0,1-2.5.33,9.413,9.413,0,0,1-1.7-.158.053.053,0,0,0-.059.069,9.47,9.47,0,0,0,8.659,6.384.057.057,0,0,1,.034.1,19.164,19.164,0,0,1-11.637,3.9,19.777,19.777,0,0,1-2.255-.128,27.129,27.129,0,0,0,14.515,4.186,26.376,26.376,0,0,0,17.743-6.4,27.356,27.356,0,0,0,8.56-14.491,25.615,25.615,0,0,0,.648-5.628c0-.4-.01-.805-.031-1.205a19.02,19.02,0,0,0,4.435-4.414A.145.145,0,0,0,833.808,63.477Z" fill="#fff"/>
    </g>
    <g id="Group_185" data-name="Group 185" transform="translate(-100.404 476.962)">
      <rect id="Rectangle_17" data-name="Rectangle 17" width="65.648" height="65.648" rx="20.515" transform="translate(855.684 44.55)" fill="#c5c918"/>
      <g id="Group_78" data-name="Group 78">
        <rect id="Rectangle_18" data-name="Rectangle 18" width="9.183" height="26.243" transform="translate(869.861 68.038)" fill="#fff"/>
        <path id="Path_115" data-name="Path 115" d="M874.453,54.917a4.595,4.595,0,1,0,4.591,4.591A4.6,4.6,0,0,0,874.453,54.917Z" fill="#fff"/>
        <path id="Path_116" data-name="Path 116" d="M909.223,76.1c-.617-4.946-3.091-8.062-9.778-8.062-4.746,0-6.632.741-7.721,2.812h0V68.038H884.29V94.282h7.65V80.544c0-3.429.65-6.02,4.89-6.02,4.18,0,4.515,3.188,4.515,6.242V94.282h7.878S909.369,77.256,909.223,76.1Z" fill="#fff"/>
      </g>
    </g>
  </g>
</svg>
