<svg id="Layer_1" data-name="Layer 1" xmlns="http://www.w3.org/2000/svg" xmlns:xlink="http://www.w3.org/1999/xlink" viewBox="0 0 948.46 150.85"><defs><style>.cls-1{fill:none;}.cls-2{clip-path:url(#clip-path);}.cls-3{fill:#121f29;}.cls-4{fill:#c7d42e;}</style><clipPath id="clip-path" transform="translate(-25.77 -424.57)"><rect class="cls-1" x="25.77" y="424.57" width="948.46" height="150.85"/></clipPath></defs><g class="cls-2"><path class="cls-3" d="M250.19,445c-2.54-4.29-9.55-8.28-17.63-8.28-10.42,0-15.41,4.28-15.41,9.88,0,6.48,7.65,8.29,16.58,9.36,15.52,1.91,30,5.95,30,23.69,0,16.55-14.68,23.69-31.26,23.69-15.2,0-26.9-4.67-32.43-18.26l11.7-6c3.29,8.19,11.9,11.79,20.93,11.79s17.13-3.07,17.13-11.16c0-7-7.34-9.88-17.22-10.94-15.2-1.81-29.22-5.86-29.22-22.54,0-15.29,15.1-21.56,28.79-21.68,11.6,0,23.6,3.3,29.24,14.79Z" transform="translate(-25.77 -424.57)"/></g><polygon class="cls-3" points="267.99 15.26 244.41 15.26 244.41 2.5 305.63 2.5 305.63 15.26 282.01 15.26 282.01 76.91 267.99 76.91 267.99 15.26"/><g class="cls-2"><path class="cls-3" d="M407.37,427.19V469.8c0,22-13.49,33.27-32.2,33.27-17.86,0-33.05-10.84-33.05-33.27V427.19H356V469.8c0,13.4,7.66,20.53,19.23,20.53s18.18-7.77,18.18-20.53V427.19Z" transform="translate(-25.77 -424.57)"/><path class="cls-3" d="M486.56,463.71c.33,18.81-11.17,37.83-37.21,37.83H420.12V427.09h29.22c25.5,0,36.89,18.16,37.2,36.56M434.05,488h15.29c16.91,0,23.6-12.34,23.27-24.45-.31-11.59-7.13-23.17-23.27-23.17H434.05Z" transform="translate(-25.77 -424.57)"/></g><polygon class="cls-3" points="495.84 33.22 515.59 2.5 532.49 2.5 532.49 3.14 502.84 46.19 502.84 76.9 488.81 76.9 488.81 46.19 460.23 3.14 460.23 2.5 476.92 2.5 495.84 33.22"/><polygon class="cls-3" points="606.73 2.5 576.12 77.11 569.95 77.11 539.35 2.5 545.51 2.5 573.04 70.53 600.56 2.5 606.73 2.5"/><rect class="cls-3" x="616.71" y="2.51" width="5.63" height="74.4"/><polygon class="cls-3" points="639.71 2.5 639.71 71.48 681.58 71.48 681.58 76.9 633.98 76.9 633.98 2.5 639.71 2.5"/><polygon class="cls-3" points="698.16 2.5 698.16 71.48 740.03 71.48 740.03 76.9 692.42 76.9 692.42 2.5 698.16 2.5"/><path class="cls-3" d="M840.58,501.48l-8.2-18.28H788l-8.08,18.28h-6.16l33.36-74.39h6.29l33.36,74.39Zm-10.43-23.59-20-45.27-20,45.27Z" transform="translate(-25.77 -424.57)"/><g class="cls-2"><path class="cls-3" d="M906.72,440.8a34.55,34.55,0,0,0-23.92-9.57c-21.78,0-32.94,15.94-32.85,33.16C850,481.92,861.09,497,882.8,497a33.45,33.45,0,0,0,22.63-8.58V467.58H879.51v-5h31.42v27.85a38.37,38.37,0,0,1-28.06,12c-25.28,0-38.36-17.64-38.36-37.95-.1-23.26,15.7-38.48,38.36-38.48a38.73,38.73,0,0,1,27.2,11.17Z" transform="translate(-25.77 -424.57)"/></g><polygon class="cls-3" points="895.86 2.5 895.86 76.9 948.47 76.9 948.47 71.37 901.49 71.37 901.49 42.05 945.07 42.05 945.07 36.84 901.49 36.84 901.49 7.93 947.2 7.93 947.2 2.5 895.86 2.5"/><polygon class="cls-4" points="262.71 111.49 262.71 121.52 278.49 121.52 278.49 126.73 262.71 126.73 262.71 140.97 256.85 140.97 256.85 106.23 280.17 106.23 280.12 111.49 262.71 111.49"/><g class="cls-2"><path class="cls-4" d="M334.32,531.55a3.33,3.33,0,1,1-3.31-3.47,3.28,3.28,0,0,1,3.31,3.25v.22m-6.14,7.54h5.71v26.39h-5.71Z" transform="translate(-25.77 -424.57)"/><path class="cls-4" d="M384.89,549.09v16.44h-5.71V550.67a5.85,5.85,0,0,0-6.34-6.38,7.38,7.38,0,0,0-7.5,7.14v14.06h-5.71v-26.4h5.71v5.07c1.88-3.69,5.26-5.27,9.73-5.27,6.15,0,9.82,3.87,9.82,10.17" transform="translate(-25.77 -424.57)"/><path class="cls-4" d="M435.07,565.54h-5.72V561a10.26,10.26,0,0,1-9.28,4.77c-7.6,0-12.65-5.51-12.65-13.56s5.11-13.35,12.55-13.35a10.44,10.44,0,0,1,9.38,4.83v-15h5.72Zm-5.72-13.1c0-5.11-3.32-8.68-8.09-8.68s-8.09,3.63-8.13,8.68,3.31,8.57,8.13,8.57,8.09-3.57,8.09-8.57" transform="translate(-25.77 -424.57)"/><path class="cls-4" d="M501.64,569.17c-1.63,4.17-4.61,6.25-8.57,6.25a8.9,8.9,0,0,1-6.1-2.24l2.43-4.41a5.52,5.52,0,0,0,3.42,1.3,4.31,4.31,0,0,0,4-2.94l.9-2-10.93-26h5.9l7.89,20,7.34-20h5.71Z" transform="translate(-25.77 -424.57)"/><path class="cls-4" d="M559.05,552.4c0,7.94-5.61,13.4-13.74,13.4s-13.79-5.46-13.79-13.4S537.12,539,545.31,539s13.74,5.41,13.74,13.39m-21.83,0c0,5.1,3.32,8.57,8.09,8.57s8-3.48,8-8.57-3.31-8.57-8-8.57-8.09,3.47-8.09,8.57" transform="translate(-25.77 -424.57)"/><path class="cls-4" d="M606.34,565.54h-5.71v-5.16c-1.79,3.68-5.11,5.32-9.43,5.36-6.05,0-9.68-3.87-9.68-10.17V539.09h5.71v14.84c0,4,2.33,6.4,6.16,6.4,4.56-.1,7.24-3.61,7.24-8.23v-13h5.71Z" transform="translate(-25.77 -424.57)"/><path class="cls-4" d="M637.85,544.4A9.58,9.58,0,0,1,647,539v5.45c-5.32-.3-8.69,2.86-9.13,7.35v13.79h-5.71V539.09h5.71Z" transform="translate(-25.77 -424.57)"/><path class="cls-4" d="M727,552.44c0,7.89-5,13.3-12.51,13.3a10.38,10.38,0,0,1-9.33-4.75v14.19h-5.71V539.09h5.71v4.57a10.31,10.31,0,0,1,9.23-4.77c7.5,0,12.61,5.46,12.61,13.5m-5.71-.15c0-4.91-3.33-8.56-8-8.56s-8,3.57-8,8.56,3.33,8.65,8,8.65,8-3.59,8-8.65" transform="translate(-25.77 -424.57)"/></g><rect class="cls-4" x="724.8" y="104.15" width="5.71" height="36.82"/><g class="cls-2"><path class="cls-4" d="M798.11,562.28c-1.88,2.33-4.91,3.48-8.74,3.48-5.71,0-9.28-3.53-9.28-8.2s3.63-7.88,10-7.93h8v-.8c0-3.33-2.13-5.31-6.3-5.31a13.87,13.87,0,0,0-7.79,2.71l-2.33-4a19.41,19.41,0,0,1,11.42-3.33c6.8,0,10.61,3.47,10.67,9.29v17.31h-5.6Zm0-6V553.8H791c-3.72,0-5.45,1-5.45,3.51s1.93,3.93,5.1,3.93c4.07,0,7.14-2.14,7.49-5" transform="translate(-25.77 -424.57)"/><path class="cls-4" d="M850.52,543.26,847.39,547a10,10,0,0,0-7.54-3c-4.57,0-7.84,3.43-7.84,8.44s3.27,8.43,7.84,8.43a9.83,9.83,0,0,0,7.78-3.17l3.19,3.17c-2.39,3.13-6.2,4.91-11.21,4.91a12.7,12.7,0,0,1-13.32-12q0-.65,0-1.29c0-8,5.47-13.45,13.32-13.45,4.75,0,8.48,1.54,10.91,4.28" transform="translate(-25.77 -424.57)"/><path class="cls-4" d="M896.31,554.53h-20a8.06,8.06,0,0,0,8.2,6.6,10.3,10.3,0,0,0,7.44-3.07l3,3.21a14.3,14.3,0,0,1-10.91,4.47c-8.15,0-13.5-5.4-13.5-13.34A12.86,12.86,0,0,1,882.8,539a11,11,0,0,1,1.15,0c9.29,0,13.06,6,12.36,15.58m-5-4.17a6.76,6.76,0,0,0-6.67-6.87l-.73,0a7.51,7.51,0,0,0-7.74,6.84Z" transform="translate(-25.77 -424.57)"/><path class="cls-4" d="M51.49,525.1a109.37,109.37,0,0,0-22.37-2.71,3.23,3.23,0,0,0-3.34,3.12v.07A3.23,3.23,0,0,0,29,528.77a101.68,101.68,0,0,1,21.22,2.57C70.8,536.15,86.46,547,97,563.7h7.51c-14.12-24.72-36-34.69-53-38.61" transform="translate(-25.77 -424.57)"/><path class="cls-4" d="M44.21,539.27a87.05,87.05,0,0,0-15-2.07,3.19,3.19,0,1,0-.39,6.37,80.14,80.14,0,0,1,13.89,1.88c13.08,3,23.62,9.15,31.56,18.24h8.26C71.34,548.59,56.26,542,44.21,539.24" transform="translate(-25.77 -424.57)"/><path class="cls-4" d="M151,519.59c-14.45-.54-30.91,2.66-47.8,13.47a94.18,94.18,0,0,0-8.64-6.89c17.49-12,36.3-17.7,56.22-16.93A3.14,3.14,0,1,0,151,503c-18-.63-38.6,3.43-59.39,17.46V508.67c23.73-1.77,41.5-22,39.69-45.18S108.75,422.93,85,424.7s-41.51,22-39.7,45.18c1.61,20.73,18.48,37.21,39.7,38.79v11.59a107.34,107.34,0,0,0-27-10.13,132.56,132.56,0,0,0-29-3.32A3.22,3.22,0,0,0,25.77,510v0a3.2,3.2,0,0,0,3.2,3.22H29a126.33,126.33,0,0,1,27.47,3.14c28.45,6.57,49.28,22.5,62.09,47.38h7.2a106.37,106.37,0,0,0-6.63-11.83c10-6.54,20.58-9.71,31.58-9.51a3.17,3.17,0,0,0,3.28-3.06v-.12a3.16,3.16,0,0,0-3.12-3.13c-10.77-.2-23,2.41-35.42,10.54l0-.06-.14.06.08.11c-3-3.94-5.56-6.9-7.55-9l.17.18h0l-.18-.19c13.61-8.44,27.94-12.36,42.83-11.76a3.18,3.18,0,0,0,3.33-3v-.16a3.18,3.18,0,0,0-3.1-3.14M51.7,466.73C51.67,447,68,431,88.23,430.94s36.6,16,36.62,35.7c0,18.52-14.44,34-33.33,35.64V491.7c10.79-.49,21.62-8.05,25.18-18.91a3.12,3.12,0,0,0-2.2-3.88,3.59,3.59,0,0,0-.87-.13h-.22a3.27,3.27,0,0,0-3.09,2.3,20.54,20.54,0,0,1-18.82,14.1V463.39a16,16,0,0,0,13.9-10.75,3.61,3.61,0,0,0-2.48-4.5,3.34,3.34,0,0,0-1.09-.15h-.07a2.55,2.55,0,0,0-2.51,2.08c-.84,3.89-5.27,6.39-7.75,6.78V446.06a3.32,3.32,0,0,0-2.91-3.35A3.25,3.25,0,0,0,85,445.56a2.71,2.71,0,0,0,0,.29v24c-7.78-1.75-12.49-6.14-14.64-12.21a3.27,3.27,0,0,0-3.85-2h-.06a3.12,3.12,0,0,0-2.35,3.79,2.8,2.8,0,0,0,.13.41c3.32,8.55,10.91,14.84,20.8,16.7v25.64c-18.83-1.66-33.26-17.08-33.28-35.56M105.22,535l-.17-.16Zm-.73-.7-.11-.1Zm-.58-.54-.06-.05Zm13.34,15.47-.35-.47Zm-10.46-12.65.3.32-.3-.32m-.93-.95.22.22Z" transform="translate(-25.77 -424.57)"/></g></svg>