<svg xmlns="http://www.w3.org/2000/svg" width="43.481" height="43.441" viewBox="0 0 43.481 43.441">
  <g id="Group_188" data-name="Group 188" transform="translate(-505.294 -252.873)">
    <g id="Group_30" data-name="Group 30">
      <path id="Path_28" data-name="Path 28" d="M527.769,260.422a8.4,8.4,0,0,1,1.863,3.649,12.739,12.739,0,0,1,.221,4.478c-.069.6-.17,1.276-.318,1.993a6.366,6.366,0,0,0,4.6,1.813c5.412,0,7.36-5.42,7.869-9.871.628-5.484-1.965-9.611-7.869-9.611-4.634,0-7.228,2.542-7.826,6.287A7.539,7.539,0,0,1,527.769,260.422Z" fill="#fff"/>
      <path id="Path_29" data-name="Path 29" d="M548.773,285.26a36.839,36.839,0,0,0-.564-5.164c-.364-2.06-.829-5.08-2.628-6.423a14.712,14.712,0,0,0-3.578-1.5,15.59,15.59,0,0,1-1.586-.712,8.6,8.6,0,0,1-11.4,1.07,13.443,13.443,0,0,1-1.375,3.015,11.626,11.626,0,0,0,1.777.837c.3.12.639.229.993.345a10.033,10.033,0,0,1,3.016,1.394c2.315,1.728,2.885,4.966,3.3,7.331l.045.255c.215,1.212.373,2.4.474,3.561a52.708,52.708,0,0,0,5.489-.894,32.389,32.389,0,0,0,4.305-1.188C548.158,286.785,548.818,286.6,548.773,285.26Z" fill="#fff"/>
      <path id="Path_30" data-name="Path 30" d="M535.857,285.872l-.046-.256c-.389-2.212-.922-5.24-2.942-6.748a9.157,9.157,0,0,0-2.749-1.256c-.367-.12-.714-.233-1.044-.363-.481-.189-.915-.375-1.322-.579a8.562,8.562,0,0,1-13.778,0c-.407.2-.84.39-1.322.579-.33.13-.677.243-1.044.363a9.146,9.146,0,0,0-2.749,1.256c-2.021,1.508-2.554,4.537-2.943,6.749l-.045.255a37.955,37.955,0,0,0-.576,5.293c-.068,1.967,1.153,2.4,2.23,2.792l.116.042a33.457,33.457,0,0,0,4.429,1.224,43.926,43.926,0,0,0,8.786,1.091h.014a43.918,43.918,0,0,0,8.786-1.091A33.3,33.3,0,0,0,534.087,294l.115-.042c1.078-.386,2.3-.825,2.231-2.792A37.968,37.968,0,0,0,535.857,285.872Z" fill="#fff"/>
      <path id="Path_31" data-name="Path 31" d="M520.937,278.707c5.412,0,7.36-5.419,7.87-9.871.628-5.484-1.966-9.611-7.87-9.611s-8.5,4.127-7.869,9.611C513.577,273.288,515.524,278.708,520.937,278.707Z" fill="#fff"/>
    </g>
  </g>
</svg>
