<svg xmlns="http://www.w3.org/2000/svg" width="38.488" height="43.179" viewBox="0 0 38.488 43.179">
  <g id="Group_189" data-name="Group 189" transform="translate(-284.529 -474.05)">
    <path id="Path_376" data-name="Path 376" d="M321.31,498a11.17,11.17,0,1,0,11.17,11.16A11.17,11.17,0,0,0,321.31,498Z" transform="translate(-17.58 -23.95)" fill="#c5d32f"/>
    <path id="Path_377" data-name="Path 377" d="M340.47,529.24a10.437,10.437,0,0,0-1.12-2,13.85,13.85,0,0,0-9.6-6,2,2,0,0,0-1.42.34,11.9,11.9,0,0,1-14,0,1.78,1.78,0,0,0-1.41-.34,13.77,13.77,0,0,0-10.73,8.09,1.09,1.09,0,0,0,.05.93,20.122,20.122,0,0,0,1.32,2,18.587,18.587,0,0,0,2.24,2.53,28.453,28.453,0,0,0,2.24,2,22.24,22.24,0,0,0,26.53,0,20.868,20.868,0,0,0,2.24-2,22.728,22.728,0,0,0,2.24-2.53,17.59,17.59,0,0,0,1.32-2,.84.84,0,0,0,.1-1.02Z" transform="translate(-17.58 -23.95)" fill="#c5d32f"/>
  </g>
</svg>
