<svg xmlns="http://www.w3.org/2000/svg" width="38.46" height="43" viewBox="0 0 38.46 43">
  <g id="Group_190" data-name="Group 190" transform="translate(-242.959 -537.33)">
    <path id="Path_601" data-name="Path 601" d="M279.75,561.28a11.17,11.17,0,1,0,11.16,11.17,11.17,11.17,0,0,0-11.16-11.17Z" transform="translate(-17.58 -23.95)" fill="#c8c8c8"/>
    <path id="Path_602" data-name="Path 602" d="M298.91,592.53a11.6,11.6,0,0,0-1.12-2,13.89,13.89,0,0,0-9.61-6,2,2,0,0,0-1.41.34,11.9,11.9,0,0,1-14,0,1.84,1.84,0,0,0-1.42-.34,13.75,13.75,0,0,0-9.6,6,12.089,12.089,0,0,0-1.12,2,1,1,0,0,0,.05.93,20.073,20.073,0,0,0,1.31,1.95,19.3,19.3,0,0,0,2.24,2.53,28.351,28.351,0,0,0,2.25,1.95,22.22,22.22,0,0,0,26.52,0,19.809,19.809,0,0,0,2.24-1.95,22.731,22.731,0,0,0,2.24-2.53,17.571,17.571,0,0,0,1.32-1.95.86.86,0,0,0,.11-.93Z" transform="translate(-17.58 -23.95)" fill="#c8c8c8"/>
  </g>
</svg>
