<svg xmlns="http://www.w3.org/2000/svg" xmlns:xlink="http://www.w3.org/1999/xlink" width="59.87" height="59.33" viewBox="0 0 59.87 59.33">
  <defs>
    <clipPath id="clip-path">
      <rect id="Rectangle_138" data-name="Rectangle 138" width="59.87" height="59.33" transform="translate(1181.82 94.54)" fill="none"/>
    </clipPath>
  </defs>
  <g id="Group_184" data-name="Group 184" transform="translate(-1181.82 -94.54)" clip-path="url(#clip-path)">
    <path id="Path_732" data-name="Path 732" d="M1259.27,165.62a12.25,12.25,0,0,1-12.3,12.19H1211.7a12.25,12.25,0,0,1-12.3-12.19v-35a12.24,12.24,0,0,1,12.3-12.18H1247a12.24,12.24,0,0,1,12.3,12.18Z" transform="translate(-17.58 -23.95)" fill="#c6d42f"/>
    <path id="Path_733" data-name="Path 733" d="M1238.14,152.57c-.72-.56-1.48-1.07-2.24-1.58-1.5-1-2.87-1.11-4,.54a1.77,1.77,0,0,1-2.43.56,10.6,10.6,0,0,1-5.65-5.35,3.15,3.15,0,0,1-.31-1.13,1.87,1.87,0,0,1,1-1.75,2.06,2.06,0,0,0,1.21-1.82c-.07-1.18-3-5.13-4.19-5.54a2.12,2.12,0,0,0-1.45,0c-2.74.9-3.87,3.08-2.78,5.67a31,31,0,0,0,2,4.07,30.3,30.3,0,0,0,14.72,12.31,9.134,9.134,0,0,0,1.2.33,5.47,5.47,0,0,0,4.48-3.32c.58-1.59-.65-2.22-1.62-3m-7.35-11.07c-.37,0-.73.05-.86.43-.21.57.22.71.66.78a2.54,2.54,0,0,1,2.36,2.46.829.829,0,0,0,.19.47.52.52,0,0,0,.48.18.62.62,0,0,0,.29-.1.91.91,0,0,0,.26-.85,3.77,3.77,0,0,0-3.38-3.37m-.32-2.68c-.56-.06-1.28-.31-1.41.43s.67.7,1.2.82c3.54.76,4.77,2,5.35,5.43a3.461,3.461,0,0,1,0,.48c0,.39.13.75.75.66a.47.47,0,0,0,.45-.45v-.69c0-3.28-2.86-6.26-6.39-6.68m-2.29-2.11c0-.91.91-.57,1.33-.63,5.51.18,10.25,5.08,10.18,10.36v.4c0,.44,0,.89-.63.87s-.59-.67-.62-1.18a.565.565,0,0,0,0-.13c-.73-5.61-3.37-8.26-9.11-9.11-.47-.07-1.19,0-1.16-.58" transform="translate(-17.58 -23.95)" fill="#fff"/>
    <path id="Path_734" data-name="Path 734" d="M1245.54,131.42c-1.1-1-5.55-4.3-15.46-4.35,0,0-11.68-.71-17.38,4.59-3.16,3.21-4.28,7.92-4.4,13.76s-.27,16.77,10.12,19.73h0v4.52s-.07,1.83,1.12,2.21c1.44.45,2.28-.94,3.65-2.44.76-.83,1.8-2,2.58-3a39.52,39.52,0,0,0,13.2-1c1.43-.47,9.55-1.52,10.87-12.46,1.36-11.28-.66-18.4-4.31-21.62m1.22,20.8c-1.11,9.14-7.7,9.71-8.91,10.11a36.451,36.451,0,0,1-11.35,1l-6.55,7.18v-8.28h0c-8.79-2.48-8.5-11.76-8.4-16.64s1-8.87,3.68-11.55c4.82-4.43,14.74-3.77,14.74-3.77,8.38,0,12.4,2.6,13.33,3.46,3.09,2.69,4.67,9.11,3.51,18.52" transform="translate(-17.58 -23.95)" fill="#fff"/>
  </g>
</svg>
