<svg xmlns="http://www.w3.org/2000/svg" width="43.355" height="43.356" viewBox="0 0 43.355 43.356">
  <g id="voov" transform="translate(-215.184 -227.402)">
    <path id="Rectangle_67" data-name="Rectangle 67" d="M8.907,0H34.449a8.906,8.906,0,0,1,8.906,8.906V34.45a8.906,8.906,0,0,1-8.906,8.906H8.9a8.9,8.9,0,0,1-8.9-8.9V8.907A8.907,8.907,0,0,1,8.907,0Z" transform="translate(215.184 227.402)" fill="#c5c918"/>
    <g id="Group_4" data-name="Group 4" transform="translate(-4 45)">
      <path id="Path_7" data-name="Path 7" d="M228.053,213.047l-4.34-4.349a2.918,2.918,0,0,1-.769-1.988,3.373,3.373,0,0,1,.991-2.2L234.4,194.064l6.323,6.338Z" fill="#fff"/>
      <path id="Path_8" data-name="Path 8" d="M257.548,204.509l-4.143-4.134v0l-4.35-4.34-.044-.041-1.932-1.928-1.964,1.968c-.088.072-.172.146-.249.223l-10.445,10.469,6.338,6.323,6.321-6.335,6.349,6.335,4.34-4.349a2.918,2.918,0,0,0,.769-1.988A3.363,3.363,0,0,0,257.548,204.509Z" fill="#fff"/>
      <path id="Path_9" data-name="Path 9" d="M234.422,194.083v12.61l6.3-6.291Z" fill="#fff"/>
    </g>
  </g>
</svg>
