<svg xmlns="http://www.w3.org/2000/svg" width="43.356" height="43.357" viewBox="0 0 43.356 43.357">
  <g id="Group_194" data-name="Group 194" transform="translate(-374.486 -181.539)">
    <path id="Rectangle_1" data-name="Rectangle 1" d="M8.9,0H34.449a8.908,8.908,0,0,1,8.908,8.908V34.449a8.908,8.908,0,0,1-8.908,8.908H8.908A8.908,8.908,0,0,1,0,34.449V8.9A8.9,8.9,0,0,1,8.9,0Z" transform="translate(374.486 181.539)" fill="#c5c918"/>
    <g id="Group_1" data-name="Group 1">
      <path id="Path_2" data-name="Path 2" d="M394.694,201.113c3.3-3.3,8.562-3.126,8.562-3.126s-1.9-9.478-12.808-8.662-14.132,13.249-6.183,18.209l-1.019,3.158s-.51,1.224.782.442,3.4-1.97,3.4-1.97a10.127,10.127,0,0,0,4.688.612C391.5,208.518,391.4,204.407,394.694,201.113Zm1.6-6.217a1.359,1.359,0,1,1-1.358,1.359A1.359,1.359,0,0,1,396.292,194.9Zm-9.274,2.717a1.359,1.359,0,1,1,1.359-1.358A1.359,1.359,0,0,1,387.018,197.613Z" fill="#fff"/>
      <path id="Path_3" data-name="Path 3" d="M412.836,207.33c-.035-4.281-4.655-10.022-12.842-8.12-8.5,1.976-9.794,12.167-2.887,15.559,5.877,2.888,9.784.612,9.784.612l2.582,1.529s.951.747.679-.341-.747-2.615-.747-2.615A8.579,8.579,0,0,0,412.836,207.33Zm-13.657-1.869a1.291,1.291,0,1,1,1.292-1.291A1.291,1.291,0,0,1,399.179,205.461Zm7.1,0a1.291,1.291,0,1,1,1.292-1.291A1.29,1.29,0,0,1,406.279,205.461Z" fill="#fff"/>
    </g>
  </g>
</svg>
