<svg xmlns="http://www.w3.org/2000/svg" width="65.648" height="65.648" viewBox="0 0 65.648 65.648">
  <g id="Group_73" data-name="Group 73" transform="translate(-778.239 -119.663)">
    <rect id="Rectangle_12" data-name="Rectangle 12" width="65.648" height="65.648" rx="20.515" transform="translate(778.239 119.663)" fill="#c5c918"/>
    <g id="Group_72" data-name="Group 72">
      <g id="Group_71" data-name="Group 71">
        <path id="Path_109" data-name="Path 109" d="M832.941,151.354a21.441,21.441,0,0,0-42.842-.4c-.015.312-.025.625-.025.94A21.117,21.117,0,0,0,793,162.622a.307.307,0,0,1,.027.256l-3.8,11.218a.2.2,0,0,0,.246.25l11.682-3.715a.311.311,0,0,1,.239.022,21.615,21.615,0,0,0,10.12,2.519,21.384,21.384,0,0,0,21.439-21.28C832.952,151.737,832.941,151.354,832.941,151.354Zm-35.9,10.122a17.015,17.015,0,0,1-2.935-9.584c0-.551.027-1.1.083-1.675a17.417,17.417,0,0,1,34.674.323c.04.526.059.954.059,1.349a17.425,17.425,0,0,1-24.764,15.653c-.639-.3-1.853-1.023-2.236-1.254a.305.305,0,0,0-.255-.029l-5.88,1.87a.173.173,0,0,1-.216-.22l1.9-5.6a.314.314,0,0,0-.042-.285C797.314,161.864,797.124,161.6,797.042,161.476Z" fill="#fff"/>
      </g>
      <path id="Path_110" data-name="Path 110" d="M821.706,156.626a4.6,4.6,0,0,0-1.058-.658c-.365-.181-3.051-1.5-3.555-1.678-.432-.155-.921-.33-1.36.322-.334.494-1.309,1.633-1.626,1.992-.223.253-.427.336-.921.089a17.811,17.811,0,0,1-4.124-2.522,15.21,15.21,0,0,1-2.845-3.516c-.226-.383-.079-.561.2-.84.172-.169.929-1.085.989-1.173.121-.184.336-.625.336-.625a1.116,1.116,0,0,0-.039-1.053c-.087-.171-1.464-3.486-1.595-3.8-.393-.937-.812-.986-1.212-.963-.195.014-2.017.028-2.6.658l-.1.108a5.786,5.786,0,0,0-1.755,4.283,6.532,6.532,0,0,0,.274,1.8,11.691,11.691,0,0,0,1.875,3.619c.019.025,1.352,1.876,2.018,2.643a18.266,18.266,0,0,0,6.892,5.16c3.07,1.2,4.38,1.473,5.124,1.473a11.12,11.12,0,0,0,1.16-.179c.937-.084,3.167-1.246,3.634-2.55A4.236,4.236,0,0,0,821.706,156.626Z" fill="#fff"/>
    </g>
  </g>
</svg>
